<?xml version="1.0" standalone="no"?>
<!DOCTYPE svg PUBLIC "-//W3C//DTD SVG 20010904//EN"
 "http://www.w3.org/TR/2001/REC-SVG-20010904/DTD/svg10.dtd">
<svg version="1.0" xmlns="http://www.w3.org/2000/svg"
 width="500.000000pt" height="500.000000pt" viewBox="0 0 500.000000 500.000000"
 preserveAspectRatio="xMidYMid meet">
<metadata>
Created by potrace 1.11, written by Peter Selinger 2001-2013
</metadata>
<g transform="translate(0.000000,500.000000) scale(0.100000,-0.100000)"
fill="#000000" stroke="none">
<path d="M2130 4981 c-993 -159 -1776 -858 -2040 -1820 -29 -108 -54 -229 -65
-317 -3 -27 -8 -65 -12 -84 -12 -75 -10 -410 4 -521 91 -767 474 -1395 1113
-1826 321 -217 759 -370 1145 -401 159 -12 504 -5 556 12 8 3 34 7 59 10 145
16 454 107 625 184 810 366 1356 1110 1466 1997 14 111 17 419 6 535 -94 931
-699 1736 -1567 2082 -144 58 -376 121 -525 145 -16 2 -41 7 -55 10 -14 3
-153 7 -310 9 -240 3 -303 0 -400 -15z"/>
</g>
</svg>
